<mxfile host="app.diagrams.net" modified="2024-01-31T10:02:53.628Z" agent="Mozilla/5.0 (X11; Linux x86_64; rv:109.0) Gecko/20100101 Firefox/115.0" etag="khzLxUVPgS79jxaDfCm9" version="23.0.2" type="device">
  <diagram id="C5RBs43oDa-KdzZeNtuy" name="Page-1">
    <mxGraphModel dx="1434" dy="756" grid="1" gridSize="10" guides="1" tooltips="1" connect="1" arrows="1" fold="1" page="1" pageScale="1" pageWidth="827" pageHeight="1169" math="0" shadow="0">
      <root>
        <mxCell id="WIyWlLk6GJQsqaUBKTNV-0" />
        <mxCell id="WIyWlLk6GJQsqaUBKTNV-1" parent="WIyWlLk6GJQsqaUBKTNV-0" />
        <mxCell id="jk3NiZid08slwdM1l7YJ-12" style="edgeStyle=orthogonalEdgeStyle;rounded=0;orthogonalLoop=1;jettySize=auto;html=1;entryX=0.5;entryY=0;entryDx=0;entryDy=0;" edge="1" parent="WIyWlLk6GJQsqaUBKTNV-1" source="jk3NiZid08slwdM1l7YJ-0" target="jk3NiZid08slwdM1l7YJ-10">
          <mxGeometry relative="1" as="geometry" />
        </mxCell>
        <mxCell id="jk3NiZid08slwdM1l7YJ-0" value="User inputs string in the format &amp;lt;int&amp;gt;&amp;lt;operator&amp;gt;&amp;lt;int&amp;gt;" style="shape=parallelogram;perimeter=parallelogramPerimeter;whiteSpace=wrap;html=1;fixedSize=1;" vertex="1" parent="WIyWlLk6GJQsqaUBKTNV-1">
          <mxGeometry x="354" y="70" width="120" height="60" as="geometry" />
        </mxCell>
        <mxCell id="jk3NiZid08slwdM1l7YJ-9" style="edgeStyle=orthogonalEdgeStyle;rounded=0;orthogonalLoop=1;jettySize=auto;html=1;entryX=0;entryY=0.5;entryDx=0;entryDy=0;" edge="1" parent="WIyWlLk6GJQsqaUBKTNV-1" source="jk3NiZid08slwdM1l7YJ-1" target="jk3NiZid08slwdM1l7YJ-6">
          <mxGeometry relative="1" as="geometry" />
        </mxCell>
        <mxCell id="jk3NiZid08slwdM1l7YJ-26" style="edgeStyle=orthogonalEdgeStyle;rounded=0;orthogonalLoop=1;jettySize=auto;html=1;entryX=0.5;entryY=0;entryDx=0;entryDy=0;" edge="1" parent="WIyWlLk6GJQsqaUBKTNV-1" source="jk3NiZid08slwdM1l7YJ-1" target="jk3NiZid08slwdM1l7YJ-25">
          <mxGeometry relative="1" as="geometry" />
        </mxCell>
        <mxCell id="jk3NiZid08slwdM1l7YJ-1" value="Is the character a digit?" style="rhombus;whiteSpace=wrap;html=1;" vertex="1" parent="WIyWlLk6GJQsqaUBKTNV-1">
          <mxGeometry x="374" y="390" width="80" height="80" as="geometry" />
        </mxCell>
        <mxCell id="jk3NiZid08slwdM1l7YJ-5" style="edgeStyle=orthogonalEdgeStyle;rounded=0;orthogonalLoop=1;jettySize=auto;html=1;entryX=0.5;entryY=0;entryDx=0;entryDy=0;" edge="1" parent="WIyWlLk6GJQsqaUBKTNV-1" source="jk3NiZid08slwdM1l7YJ-2" target="jk3NiZid08slwdM1l7YJ-1">
          <mxGeometry relative="1" as="geometry" />
        </mxCell>
        <mxCell id="jk3NiZid08slwdM1l7YJ-2" value="Check the next character in the string" style="rounded=0;whiteSpace=wrap;html=1;" vertex="1" parent="WIyWlLk6GJQsqaUBKTNV-1">
          <mxGeometry x="354" y="310" width="120" height="60" as="geometry" />
        </mxCell>
        <mxCell id="jk3NiZid08slwdM1l7YJ-16" style="edgeStyle=orthogonalEdgeStyle;rounded=0;orthogonalLoop=1;jettySize=auto;html=1;" edge="1" parent="WIyWlLk6GJQsqaUBKTNV-1" source="jk3NiZid08slwdM1l7YJ-6" target="jk3NiZid08slwdM1l7YJ-14">
          <mxGeometry relative="1" as="geometry" />
        </mxCell>
        <mxCell id="jk3NiZid08slwdM1l7YJ-23" style="edgeStyle=orthogonalEdgeStyle;rounded=0;orthogonalLoop=1;jettySize=auto;html=1;entryX=0.5;entryY=0;entryDx=0;entryDy=0;" edge="1" parent="WIyWlLk6GJQsqaUBKTNV-1" source="jk3NiZid08slwdM1l7YJ-6" target="jk3NiZid08slwdM1l7YJ-17">
          <mxGeometry relative="1" as="geometry" />
        </mxCell>
        <mxCell id="jk3NiZid08slwdM1l7YJ-6" value="Is the character a valid operator?" style="rhombus;whiteSpace=wrap;html=1;" vertex="1" parent="WIyWlLk6GJQsqaUBKTNV-1">
          <mxGeometry x="550" y="400" width="80" height="80" as="geometry" />
        </mxCell>
        <mxCell id="jk3NiZid08slwdM1l7YJ-13" style="edgeStyle=orthogonalEdgeStyle;rounded=0;orthogonalLoop=1;jettySize=auto;html=1;" edge="1" parent="WIyWlLk6GJQsqaUBKTNV-1" source="jk3NiZid08slwdM1l7YJ-10" target="jk3NiZid08slwdM1l7YJ-2">
          <mxGeometry relative="1" as="geometry" />
        </mxCell>
        <mxCell id="jk3NiZid08slwdM1l7YJ-10" value="Set &quot;operatorSeen&quot; to False" style="rounded=0;whiteSpace=wrap;html=1;" vertex="1" parent="WIyWlLk6GJQsqaUBKTNV-1">
          <mxGeometry x="354" y="180" width="120" height="60" as="geometry" />
        </mxCell>
        <mxCell id="jk3NiZid08slwdM1l7YJ-21" style="edgeStyle=orthogonalEdgeStyle;rounded=0;orthogonalLoop=1;jettySize=auto;html=1;entryX=0.5;entryY=0;entryDx=0;entryDy=0;" edge="1" parent="WIyWlLk6GJQsqaUBKTNV-1" source="jk3NiZid08slwdM1l7YJ-14" target="jk3NiZid08slwdM1l7YJ-20">
          <mxGeometry relative="1" as="geometry" />
        </mxCell>
        <mxCell id="jk3NiZid08slwdM1l7YJ-24" style="edgeStyle=orthogonalEdgeStyle;rounded=0;orthogonalLoop=1;jettySize=auto;html=1;entryX=0.5;entryY=0;entryDx=0;entryDy=0;" edge="1" parent="WIyWlLk6GJQsqaUBKTNV-1" source="jk3NiZid08slwdM1l7YJ-14" target="jk3NiZid08slwdM1l7YJ-17">
          <mxGeometry relative="1" as="geometry" />
        </mxCell>
        <mxCell id="jk3NiZid08slwdM1l7YJ-14" value="Is the operatorSeen variable False?" style="rhombus;whiteSpace=wrap;html=1;" vertex="1" parent="WIyWlLk6GJQsqaUBKTNV-1">
          <mxGeometry x="560" y="560" width="80" height="80" as="geometry" />
        </mxCell>
        <mxCell id="jk3NiZid08slwdM1l7YJ-19" value="" style="edgeStyle=orthogonalEdgeStyle;rounded=0;orthogonalLoop=1;jettySize=auto;html=1;" edge="1" parent="WIyWlLk6GJQsqaUBKTNV-1" source="jk3NiZid08slwdM1l7YJ-17" target="jk3NiZid08slwdM1l7YJ-18">
          <mxGeometry relative="1" as="geometry" />
        </mxCell>
        <mxCell id="jk3NiZid08slwdM1l7YJ-17" value="Return invalid string error" style="rounded=0;whiteSpace=wrap;html=1;" vertex="1" parent="WIyWlLk6GJQsqaUBKTNV-1">
          <mxGeometry x="670" y="240" width="120" height="60" as="geometry" />
        </mxCell>
        <mxCell id="jk3NiZid08slwdM1l7YJ-18" value="End" style="ellipse;whiteSpace=wrap;html=1;rounded=0;" vertex="1" parent="WIyWlLk6GJQsqaUBKTNV-1">
          <mxGeometry x="690" y="370" width="80" height="40" as="geometry" />
        </mxCell>
        <mxCell id="jk3NiZid08slwdM1l7YJ-38" style="edgeStyle=orthogonalEdgeStyle;rounded=0;orthogonalLoop=1;jettySize=auto;html=1;entryX=0.5;entryY=1;entryDx=0;entryDy=0;" edge="1" parent="WIyWlLk6GJQsqaUBKTNV-1" source="jk3NiZid08slwdM1l7YJ-20" target="jk3NiZid08slwdM1l7YJ-37">
          <mxGeometry relative="1" as="geometry">
            <Array as="points">
              <mxPoint x="600" y="840" />
              <mxPoint x="220" y="840" />
            </Array>
          </mxGeometry>
        </mxCell>
        <mxCell id="jk3NiZid08slwdM1l7YJ-20" value="Store operator, set operatorSeen to True" style="rounded=0;whiteSpace=wrap;html=1;" vertex="1" parent="WIyWlLk6GJQsqaUBKTNV-1">
          <mxGeometry x="540" y="690" width="120" height="60" as="geometry" />
        </mxCell>
        <mxCell id="jk3NiZid08slwdM1l7YJ-31" style="edgeStyle=orthogonalEdgeStyle;rounded=0;orthogonalLoop=1;jettySize=auto;html=1;entryX=0.5;entryY=0;entryDx=0;entryDy=0;" edge="1" parent="WIyWlLk6GJQsqaUBKTNV-1" source="jk3NiZid08slwdM1l7YJ-25" target="jk3NiZid08slwdM1l7YJ-27">
          <mxGeometry relative="1" as="geometry" />
        </mxCell>
        <mxCell id="jk3NiZid08slwdM1l7YJ-32" style="edgeStyle=orthogonalEdgeStyle;rounded=0;orthogonalLoop=1;jettySize=auto;html=1;entryX=0.5;entryY=0;entryDx=0;entryDy=0;" edge="1" parent="WIyWlLk6GJQsqaUBKTNV-1" source="jk3NiZid08slwdM1l7YJ-25" target="jk3NiZid08slwdM1l7YJ-29">
          <mxGeometry relative="1" as="geometry" />
        </mxCell>
        <mxCell id="jk3NiZid08slwdM1l7YJ-25" value="Is the operatorSeen variable False?" style="rhombus;whiteSpace=wrap;html=1;" vertex="1" parent="WIyWlLk6GJQsqaUBKTNV-1">
          <mxGeometry x="334" y="500" width="80" height="80" as="geometry" />
        </mxCell>
        <mxCell id="jk3NiZid08slwdM1l7YJ-33" style="edgeStyle=orthogonalEdgeStyle;rounded=0;orthogonalLoop=1;jettySize=auto;html=1;entryX=0.5;entryY=0;entryDx=0;entryDy=0;" edge="1" parent="WIyWlLk6GJQsqaUBKTNV-1" source="jk3NiZid08slwdM1l7YJ-27" target="jk3NiZid08slwdM1l7YJ-28">
          <mxGeometry relative="1" as="geometry" />
        </mxCell>
        <mxCell id="jk3NiZid08slwdM1l7YJ-27" value="Multiply contents of register 1 by 10" style="rounded=0;whiteSpace=wrap;html=1;" vertex="1" parent="WIyWlLk6GJQsqaUBKTNV-1">
          <mxGeometry x="254" y="620" width="120" height="60" as="geometry" />
        </mxCell>
        <mxCell id="jk3NiZid08slwdM1l7YJ-35" style="edgeStyle=orthogonalEdgeStyle;rounded=0;orthogonalLoop=1;jettySize=auto;html=1;endArrow=none;endFill=0;" edge="1" parent="WIyWlLk6GJQsqaUBKTNV-1" source="jk3NiZid08slwdM1l7YJ-28">
          <mxGeometry relative="1" as="geometry">
            <mxPoint x="220" y="490" as="targetPoint" />
          </mxGeometry>
        </mxCell>
        <mxCell id="jk3NiZid08slwdM1l7YJ-28" value="Add digit to contents of register 1" style="rounded=0;whiteSpace=wrap;html=1;" vertex="1" parent="WIyWlLk6GJQsqaUBKTNV-1">
          <mxGeometry x="254" y="720" width="120" height="60" as="geometry" />
        </mxCell>
        <mxCell id="jk3NiZid08slwdM1l7YJ-34" style="edgeStyle=orthogonalEdgeStyle;rounded=0;orthogonalLoop=1;jettySize=auto;html=1;entryX=0.5;entryY=0;entryDx=0;entryDy=0;" edge="1" parent="WIyWlLk6GJQsqaUBKTNV-1" source="jk3NiZid08slwdM1l7YJ-29" target="jk3NiZid08slwdM1l7YJ-30">
          <mxGeometry relative="1" as="geometry" />
        </mxCell>
        <mxCell id="jk3NiZid08slwdM1l7YJ-29" value="Multiply contents of register 2 by 10" style="rounded=0;whiteSpace=wrap;html=1;" vertex="1" parent="WIyWlLk6GJQsqaUBKTNV-1">
          <mxGeometry x="400" y="620" width="120" height="60" as="geometry" />
        </mxCell>
        <mxCell id="jk3NiZid08slwdM1l7YJ-36" style="edgeStyle=orthogonalEdgeStyle;rounded=0;orthogonalLoop=1;jettySize=auto;html=1;endArrow=none;endFill=0;" edge="1" parent="WIyWlLk6GJQsqaUBKTNV-1" source="jk3NiZid08slwdM1l7YJ-30">
          <mxGeometry relative="1" as="geometry">
            <mxPoint x="460" y="840" as="targetPoint" />
          </mxGeometry>
        </mxCell>
        <mxCell id="jk3NiZid08slwdM1l7YJ-30" value="Add digit to contents of register 2" style="rounded=0;whiteSpace=wrap;html=1;" vertex="1" parent="WIyWlLk6GJQsqaUBKTNV-1">
          <mxGeometry x="400" y="720" width="120" height="60" as="geometry" />
        </mxCell>
        <mxCell id="jk3NiZid08slwdM1l7YJ-40" style="edgeStyle=orthogonalEdgeStyle;rounded=0;orthogonalLoop=1;jettySize=auto;html=1;entryX=0.5;entryY=0;entryDx=0;entryDy=0;" edge="1" parent="WIyWlLk6GJQsqaUBKTNV-1" source="jk3NiZid08slwdM1l7YJ-37" target="jk3NiZid08slwdM1l7YJ-39">
          <mxGeometry relative="1" as="geometry" />
        </mxCell>
        <mxCell id="jk3NiZid08slwdM1l7YJ-41" style="edgeStyle=orthogonalEdgeStyle;rounded=0;orthogonalLoop=1;jettySize=auto;html=1;" edge="1" parent="WIyWlLk6GJQsqaUBKTNV-1" source="jk3NiZid08slwdM1l7YJ-37">
          <mxGeometry relative="1" as="geometry">
            <mxPoint x="410" y="280" as="targetPoint" />
          </mxGeometry>
        </mxCell>
        <mxCell id="jk3NiZid08slwdM1l7YJ-37" value="Was that the last character in the string?" style="rhombus;whiteSpace=wrap;html=1;" vertex="1" parent="WIyWlLk6GJQsqaUBKTNV-1">
          <mxGeometry x="180" y="240" width="80" height="80" as="geometry" />
        </mxCell>
        <mxCell id="jk3NiZid08slwdM1l7YJ-39" value="End" style="ellipse;whiteSpace=wrap;html=1;rounded=0;" vertex="1" parent="WIyWlLk6GJQsqaUBKTNV-1">
          <mxGeometry x="80" y="380" width="80" height="40" as="geometry" />
        </mxCell>
        <mxCell id="jk3NiZid08slwdM1l7YJ-42" value="No" style="text;html=1;strokeColor=none;fillColor=none;align=center;verticalAlign=middle;whiteSpace=wrap;rounded=0;" vertex="1" parent="WIyWlLk6GJQsqaUBKTNV-1">
          <mxGeometry x="284" y="250" width="60" height="30" as="geometry" />
        </mxCell>
        <mxCell id="jk3NiZid08slwdM1l7YJ-43" value="No" style="text;html=1;strokeColor=none;fillColor=none;align=center;verticalAlign=middle;whiteSpace=wrap;rounded=0;" vertex="1" parent="WIyWlLk6GJQsqaUBKTNV-1">
          <mxGeometry x="454" y="400" width="60" height="30" as="geometry" />
        </mxCell>
        <mxCell id="jk3NiZid08slwdM1l7YJ-44" value="No" style="text;html=1;strokeColor=none;fillColor=none;align=center;verticalAlign=middle;whiteSpace=wrap;rounded=0;" vertex="1" parent="WIyWlLk6GJQsqaUBKTNV-1">
          <mxGeometry x="610" y="400" width="60" height="30" as="geometry" />
        </mxCell>
        <mxCell id="jk3NiZid08slwdM1l7YJ-45" value="No" style="text;html=1;strokeColor=none;fillColor=none;align=center;verticalAlign=middle;whiteSpace=wrap;rounded=0;" vertex="1" parent="WIyWlLk6GJQsqaUBKTNV-1">
          <mxGeometry x="620" y="570" width="60" height="30" as="geometry" />
        </mxCell>
        <mxCell id="jk3NiZid08slwdM1l7YJ-46" value="Yes" style="text;html=1;strokeColor=none;fillColor=none;align=center;verticalAlign=middle;whiteSpace=wrap;rounded=0;" vertex="1" parent="WIyWlLk6GJQsqaUBKTNV-1">
          <mxGeometry x="400" y="480" width="60" height="30" as="geometry" />
        </mxCell>
        <mxCell id="jk3NiZid08slwdM1l7YJ-47" value="Yes" style="text;html=1;strokeColor=none;fillColor=none;align=center;verticalAlign=middle;whiteSpace=wrap;rounded=0;" vertex="1" parent="WIyWlLk6GJQsqaUBKTNV-1">
          <mxGeometry x="580" y="490" width="60" height="30" as="geometry" />
        </mxCell>
        <mxCell id="jk3NiZid08slwdM1l7YJ-48" value="Yes" style="text;html=1;strokeColor=none;fillColor=none;align=center;verticalAlign=middle;whiteSpace=wrap;rounded=0;" vertex="1" parent="WIyWlLk6GJQsqaUBKTNV-1">
          <mxGeometry x="590" y="650" width="60" height="30" as="geometry" />
        </mxCell>
        <mxCell id="jk3NiZid08slwdM1l7YJ-49" value="Yes" style="text;html=1;strokeColor=none;fillColor=none;align=center;verticalAlign=middle;whiteSpace=wrap;rounded=0;" vertex="1" parent="WIyWlLk6GJQsqaUBKTNV-1">
          <mxGeometry x="120" y="280" width="60" height="30" as="geometry" />
        </mxCell>
      </root>
    </mxGraphModel>
  </diagram>
</mxfile>
